<?xml version="1.0" standalone="no"?>
<!DOCTYPE svg PUBLIC "-//W3C//DTD SVG 20010904//EN"
 "http://www.w3.org/TR/2001/REC-SVG-20010904/DTD/svg10.dtd">
<svg version="1.0" xmlns="http://www.w3.org/2000/svg"
 width="735.000000pt" height="617.000000pt" viewBox="0 0 735.000000 617.000000"
 preserveAspectRatio="xMidYMid meet">

<g transform="translate(0.000000,617.000000) scale(0.100000,-0.100000)"
fill="#000000" stroke="none">
<path d="M1513 3779 c-18 -5 -33 -11 -33 -13 0 -1 28 -2 63 -2 51 1 72 -5 116
-29 30 -16 63 -42 74 -57 12 -16 33 -29 54 -33 23 -4 50 -22 79 -52 24 -24 44
-39 44 -32 0 19 -78 88 -108 95 -15 4 -44 23 -66 42 -39 34 -119 75 -166 85
-14 2 -40 1 -57 -4z"/>
<path d="M1296 3735 c-63 -26 -116 -69 -116 -94 0 -10 10 -4 26 17 33 42 90
70 173 87 64 13 65 13 21 14 -26 0 -70 -10 -104 -24z"/>
<path d="M5925 3723 c-62 -27 -116 -64 -109 -74 3 -6 21 2 40 16 60 46 102 58
204 58 111 0 185 -18 280 -70 82 -45 183 -131 176 -150 -3 -8 -1 -11 4 -8 12
8 49 -70 50 -102 0 -13 5 -23 10 -23 31 0 -13 110 -68 172 -58 64 -171 139
-254 168 -88 31 -275 38 -333 13z"/>
<path d="M5709 3617 c-18 -12 -44 -38 -56 -56 -24 -35 -31 -81 -13 -81 6 0 10
11 10 24 0 33 39 87 77 105 18 9 33 19 33 24 0 13 -16 8 -51 -16z"/>
<path d="M1119 3614 c-14 -9 -36 -32 -50 -52 -20 -29 -24 -48 -24 -106 0 -64
5 -82 48 -175 27 -57 54 -126 60 -152 7 -27 15 -49 19 -49 5 0 8 4 8 8 0 23
-36 124 -77 214 -68 151 -62 226 24 297 40 33 35 41 -8 15z"/>
<path d="M5873 3619 c-24 -9 -38 -27 -29 -36 4 -4 12 -1 18 5 21 21 82 14 123
-13 39 -27 57 -27 35 0 -29 35 -109 58 -147 44z"/>
<path d="M5375 3534 c-25 -38 -22 -114 5 -114 4 0 3 14 -3 31 -10 26 -9 36 10
70 24 44 15 54 -12 13z"/>
<path d="M5474 3550 c-12 -5 -29 -19 -38 -32 -18 -25 -21 -68 -5 -68 5 0 7 4
4 10 -8 13 21 66 40 74 34 13 67 5 90 -20 19 -21 25 -23 25 -10 0 18 -56 56
-80 55 -8 0 -25 -4 -36 -9z"/>
<path d="M5688 3513 c-20 -21 -51 -67 -67 -103 -33 -68 -38 -90 -21 -90 6 0
10 8 10 18 0 31 47 116 89 161 22 24 41 46 41 48 0 12 -21 -2 -52 -34z"/>
<path d="M1920 3531 c0 -5 8 -12 18 -15 35 -11 73 -62 79 -105 6 -43 23 -57
23 -19 0 37 -41 109 -74 129 -35 21 -46 24 -46 10z"/>
<path d="M5930 3510 c39 -31 43 -35 73 -69 16 -18 48 -41 70 -51 52 -22 163
-35 172 -20 3 5 3 10 -2 10 -41 1 -150 23 -173 35 -16 8 -50 38 -76 65 -28 30
-55 50 -68 50 -20 -1 -20 -1 4 -20z"/>
<path d="M5343 3384 c-115 -25 -186 -74 -227 -156 -14 -29 -26 -68 -25 -87 0
-33 2 -32 15 19 19 70 55 122 111 159 47 32 155 61 223 61 25 0 39 4 35 10 -8
13 -56 11 -132 -6z"/>
<path d="M5750 3351 c30 -11 56 -18 58 -17 9 9 -33 28 -70 32 l-43 5 55 -20z"/>
<path d="M6010 3362 c0 -11 59 -71 81 -83 33 -17 30 9 -3 32 -18 13 -39 31
-46 41 -14 19 -32 24 -32 10z"/>
<path d="M2095 3334 c11 -8 42 -28 68 -45 26 -16 51 -39 56 -51 5 -14 10 -17
15 -10 13 21 -14 51 -78 87 -64 36 -97 46 -61 19z"/>
<path d="M1928 3334 c-5 -4 -8 -18 -8 -32 0 -37 -69 -102 -109 -102 -17 0 -31
-4 -31 -10 0 -17 43 -11 85 13 43 24 79 82 73 118 -2 11 -6 17 -10 13z"/>
<path d="M2020 3305 c0 -55 -43 -105 -89 -105 -12 0 -21 -4 -21 -10 0 -22 52
-8 86 23 26 24 37 43 41 75 4 28 2 42 -6 42 -6 0 -11 -11 -11 -25z"/>
<path d="M1797 3285 c-20 -41 -70 -75 -112 -75 -26 -1 -28 -2 -12 -11 40 -23
127 31 150 93 12 33 -10 27 -26 -7z"/>
<path d="M6570 3290 c0 -37 -30 -108 -74 -178 -33 -53 -58 -148 -54 -204 l4
-43 7 40 c4 22 11 63 16 91 6 30 29 86 55 130 53 93 77 167 58 186 -9 9 -12 4
-12 -22z"/>
<path d="M3325 3281 c-53 -24 -145 -109 -184 -170 -20 -31 -39 -82 -52 -137
-11 -49 -29 -121 -40 -161 -21 -80 -24 -144 -8 -176 15 -29 70 -87 83 -87 5 0
-5 15 -24 33 -58 57 -73 118 -46 194 8 22 24 87 35 144 12 57 33 128 48 157
38 75 146 175 213 197 51 17 120 17 165 0 17 -7 18 -6 7 6 -21 22 -149 22
-197 0z"/>
<path d="M3595 3256 c29 -13 93 -71 144 -128 13 -15 32 -51 42 -80 16 -46 18
-49 19 -22 0 65 -156 245 -213 244 -19 -1 -18 -3 8 -14z"/>
<path d="M6040 3261 c0 -13 59 -61 76 -61 26 0 14 20 -21 34 -19 8 -35 20 -35
25 0 6 -4 11 -10 11 -5 0 -10 -4 -10 -9z"/>
<path d="M1560 3248 c-17 -5 -38 -32 -68 -87 -23 -44 -55 -89 -70 -100 -18
-14 -22 -20 -11 -21 22 0 59 37 79 81 17 40 30 42 30 5 0 -24 34 -85 57 -103
8 -6 22 -9 30 -6 11 4 9 8 -8 17 -58 29 -91 145 -54 186 23 25 40 25 66 -1 22
-22 33 -21 24 3 -9 23 -46 36 -75 26z"/>
<path d="M5686 3244 c-7 -19 2 -37 15 -29 12 8 12 45 0 45 -5 0 -12 -7 -15
-16z"/>
<path d="M3585 3206 c22 -19 42 -32 45 -29 6 6 -61 63 -75 63 -5 0 8 -16 30
-34z"/>
<path d="M5571 3204 c-8 -22 -26 -43 -47 -56 -42 -25 -53 -61 -29 -88 27 -30
40 -24 15 7 l-20 26 50 47 c27 25 50 51 50 57 0 6 3 18 6 27 3 9 2 16 -3 16
-5 0 -15 -16 -22 -36z"/>
<path d="M2150 3211 c-5 -11 -10 -40 -10 -64 0 -38 -5 -49 -31 -71 -32 -27
-17 -37 17 -11 10 8 28 15 39 16 15 1 16 2 4 6 -13 3 -15 14 -11 56 5 61 18
83 38 66 11 -9 14 -8 14 5 0 23 -47 21 -60 -3z"/>
<path d="M2190 3186 c0 -3 9 -21 21 -41 19 -31 20 -44 14 -113 -6 -74 -6 -78
20 -106 20 -22 25 -35 20 -54 -5 -22 -4 -24 9 -13 22 18 20 31 -9 65 -28 32
-28 34 -25 126 1 65 -20 140 -40 140 -6 0 -10 -2 -10 -4z"/>
<path d="M6176 3161 c-3 -5 8 -11 24 -14 77 -16 28 -128 -70 -158 l-25 -7 29
-1 c63 -2 143 99 116 148 -17 32 -62 52 -74 32z"/>
<path d="M1580 3135 c7 -8 20 -15 29 -15 13 1 13 3 -3 15 -26 19 -42 19 -26 0z"/>
<path d="M2038 3097 c-53 -57 -54 -57 -34 -57 18 0 98 88 91 100 -8 13 -2 17
-57 -43z"/>
<path d="M1925 3131 c-6 -11 9 -23 19 -14 9 9 7 23 -3 23 -6 0 -12 -4 -16 -9z"/>
<path d="M3490 3104 c-51 -22 -67 -40 -112 -126 -28 -55 -58 -94 -96 -128 -31
-28 -50 -50 -43 -50 29 0 122 105 156 176 19 41 47 81 62 92 37 26 109 45 145
38 15 -3 28 -1 28 4 0 15 -101 11 -140 -6z"/>
<path d="M3660 3100 c0 -5 3 -9 8 -8 4 1 17 -1 28 -5 27 -10 80 -107 63 -118
-6 -4 -9 -11 -6 -16 3 -5 7 -31 8 -57 2 -26 7 -50 12 -53 7 -4 8 20 4 63 -7
64 -6 68 9 49 11 -14 14 -35 12 -72 -5 -57 7 -63 18 -8 5 27 -1 49 -32 110
-22 42 -50 88 -63 101 -24 24 -61 33 -61 14z"/>
<path d="M5045 3035 c-11 -28 -15 -56 -11 -77 7 -35 44 -103 52 -95 3 2 -4 20
-15 38 -25 40 -28 116 -6 145 17 22 19 34 6 34 -5 0 -17 -20 -26 -45z"/>
<path d="M6125 3070 c-3 -5 1 -10 9 -10 8 0 18 5 21 10 3 6 -1 10 -9 10 -8 0
-18 -4 -21 -10z"/>
<path d="M1935 3048 c4 -13 11 -27 16 -32 12 -13 11 -56 -1 -56 -5 0 -10 -4
-10 -10 0 -14 28 -1 35 17 6 18 -25 103 -38 103 -5 0 -5 -10 -2 -22z"/>
<path d="M1194 3036 c25 -20 78 -30 123 -23 66 11 53 22 -25 22 -42 0 -86 4
-97 8 -20 8 -20 8 -1 -7z"/>
<path d="M5190 3013 c0 -39 134 -130 177 -120 17 4 16 4 -2 11 -70 26 -101 44
-136 80 -21 23 -39 36 -39 29z"/>
<path d="M2140 2990 c0 -11 5 -20 10 -20 6 0 10 9 10 20 0 11 -4 20 -10 20 -5
0 -10 -9 -10 -20z"/>
<path d="M1166 2963 c-16 -19 -27 -36 -24 -38 7 -7 61 52 57 62 -2 5 -17 -6
-33 -24z"/>
<path d="M5098 2975 c-10 -10 11 -61 33 -81 26 -23 37 -10 13 17 -10 11 -23
32 -29 46 -6 13 -13 22 -17 18z"/>
<path d="M5677 2969 c-10 -6 -40 -14 -65 -19 l-47 -8 43 -1 c38 -1 102 21 102
34 0 8 -14 5 -33 -6z"/>
<path d="M3473 2930 c-32 -13 -29 -16 17 -15 41 0 52 8 24 19 -9 3 -16 6 -17
5 -1 0 -12 -4 -24 -9z"/>
<path d="M6285 2928 c8 -19 87 -68 99 -61 6 4 2 11 -8 17 -10 6 -34 21 -53 34
-39 25 -44 27 -38 10z"/>
<path d="M1027 2910 c-14 -11 -31 -36 -37 -56 -17 -49 -7 -52 14 -3 10 22 29
47 42 55 47 31 65 15 146 -133 122 -222 118 -210 134 -362 14 -141 19 -161 73
-311 29 -82 31 -92 31 -247 0 -115 3 -163 11 -163 9 0 10 47 7 173 l-5 172
-41 107 c-30 76 -45 134 -52 200 -25 224 -24 219 -121 397 -50 91 -98 172
-107 179 -24 18 -66 15 -95 -8z"/>
<path d="M3680 2920 c0 -7 8 -9 20 -5 12 4 28 1 37 -7 14 -11 16 -11 11 2 -5
18 -68 27 -68 10z"/>
<path d="M1824 2874 c8 -32 35 -78 42 -71 2 2 -2 17 -11 33 -20 40 -19 45 10
38 15 -4 25 -2 25 5 0 6 -6 11 -12 11 -7 0 -24 3 -37 7 -22 6 -23 4 -17 -23z"/>
<path d="M3196 2807 c-78 -82 -82 -92 -62 -160 15 -51 60 -107 87 -107 17 0 9
15 -13 25 -55 25 -90 142 -53 179 16 15 19 15 34 1 25 -22 37 -19 16 5 -17 19
-17 21 20 65 55 68 38 63 -29 -8z"/>
<path d="M5250 2851 c0 -12 5 -21 10 -21 6 0 10 6 10 14 0 8 -4 18 -10 21 -5
3 -10 -3 -10 -14z"/>
<path d="M5583 2794 c10 -100 43 -125 156 -123 79 2 103 -9 121 -51 11 -26 30
-41 30 -24 0 15 -43 75 -60 84 -10 6 -57 10 -103 10 -104 0 -119 12 -125 100
-2 33 -9 60 -15 60 -6 0 -8 -21 -4 -56z"/>
<path d="M3495 2830 c-7 -12 2 -30 16 -30 5 0 9 9 9 20 0 21 -15 27 -25 10z"/>
<path d="M3648 2827 c-12 -29 -9 -54 7 -71 9 -8 12 -22 8 -32 -4 -12 -3 -15 5
-10 14 9 16 38 3 52 -5 5 -11 25 -13 44 -2 27 -5 31 -10 17z"/>
<path d="M3707 2826 c-6 -15 1 -26 15 -26 4 0 8 9 8 20 0 23 -15 27 -23 6z"/>
<path d="M5156 2765 c-6 -56 3 -89 21 -71 4 4 1 11 -6 16 -12 7 -12 14 -2 37
8 19 9 38 3 53 -7 20 -10 14 -16 -35z"/>
<path d="M6415 2758 c11 -132 16 -153 40 -190 14 -21 32 -38 41 -38 11 0 7 9
-14 30 -35 35 -52 98 -52 195 0 36 -4 65 -10 65 -6 0 -8 -25 -5 -62z"/>
<path d="M819 2796 c-149 -40 -253 -167 -294 -361 -15 -67 -17 -132 -16 -405
1 -332 -9 -515 -35 -630 -8 -36 -42 -147 -75 -247 -41 -127 -64 -216 -75 -294
-8 -61 -13 -113 -11 -116 3 -2 14 0 25 6 33 18 83 13 163 -15 79 -28 81 -28
379 -8 71 5 96 2 150 -16 36 -12 99 -25 140 -30 41 -5 87 -12 102 -16 23 -5
29 -1 43 26 31 61 46 172 35 273 -5 51 -10 126 -10 167 -1 59 -3 70 -11 51 -6
-16 -6 -73 2 -168 12 -146 5 -247 -23 -308 -11 -25 -13 -25 -92 -19 -45 4
-106 15 -136 26 -91 32 -153 37 -300 21 -153 -16 -194 -13 -299 23 -62 22 -80
24 -113 16 l-39 -10 6 66 c9 93 38 209 90 356 83 235 86 262 95 766 6 409 9
451 28 523 28 101 64 167 122 221 61 57 120 86 186 93 29 3 51 10 48 14 -7 12
-29 10 -85 -5z"/>
<path d="M3776 2753 c9 -73 -1 -113 -37 -151 -17 -18 -29 -36 -25 -39 10 -10
-32 -80 -64 -107 -23 -19 -43 -26 -73 -26 -55 0 -137 39 -170 81 -14 18 -29
30 -33 26 -13 -13 83 -93 128 -107 62 -19 62 -20 36 -47 -20 -22 -23 -36 -26
-129 -4 -121 -8 -124 -86 -73 -55 37 -81 70 -130 164 -20 39 -43 80 -52 93
-16 22 -16 22 26 22 57 0 44 12 -14 14 -35 1 -52 8 -76 31 -31 29 -42 25 -15
-6 15 -15 11 -18 -57 -33 -40 -9 -92 -26 -115 -37 -55 -27 -108 -89 -121 -142
-19 -78 -25 -302 -13 -529 16 -284 26 -381 46 -415 9 -16 14 -19 10 -9 -44
143 -62 888 -23 977 20 47 90 105 147 123 47 15 172 40 175 34 0 -2 9 -16 19
-33 10 -16 36 -65 58 -108 47 -93 107 -156 172 -183 l47 -19 0 -80 c0 -109 21
-295 33 -295 6 0 2 -9 -8 -20 -10 -11 -13 -20 -7 -20 16 0 178 157 203 196 11
19 25 31 31 28 6 -4 26 -40 45 -81 19 -41 37 -73 39 -70 3 2 -6 29 -19 59
l-24 54 38 108 c20 59 54 131 73 159 20 28 34 53 31 55 -3 3 -6 3 -8 1 -50
-70 -82 -132 -108 -206 -17 -51 -35 -93 -40 -93 -5 0 -9 5 -9 10 0 6 -11 20
-25 32 -23 19 -55 101 -70 174 -4 23 -1 35 16 49 28 26 91 134 84 146 -4 5 19
20 49 33 l56 25 0 50 0 51 75 0 c164 0 224 -63 225 -235 0 -110 -20 -197 -101
-439 -64 -194 -122 -306 -220 -428 -65 -81 -96 -101 -143 -92 -43 8 -69 40
-97 121 l-20 56 29 26 c38 35 172 196 172 207 -1 10 -6 4 -113 -124 -38 -45
-76 -82 -84 -82 -17 0 -68 53 -109 112 -23 33 -25 40 -13 55 12 14 12 16 -1
11 -29 -9 -21 -44 24 -103 25 -32 55 -64 66 -72 11 -8 20 -22 20 -33 0 -29 39
-123 64 -154 16 -21 33 -29 68 -33 43 -5 49 -3 93 38 45 41 129 157 188 259
29 51 126 329 162 465 79 305 12 459 -202 458 -71 -1 -71 -1 -61 22 18 40 2
68 -61 110 -57 38 -60 42 -59 80 0 22 -5 51 -11 65 -8 20 -9 15 -5 -27z m76
-135 c26 -18 50 -41 53 -50 3 -9 -6 -40 -21 -69 -17 -34 -22 -55 -15 -57 6 -2
11 -12 11 -23 0 -14 -16 -26 -57 -45 -68 -30 -153 -82 -153 -95 0 -5 21 5 47
21 26 17 50 30 55 30 4 0 -6 -24 -23 -52 -53 -90 -79 -110 -79 -60 0 15 -5 34
-11 42 -29 42 31 -222 66 -290 13 -26 13 -30 -14 -66 -38 -52 -149 -159 -156
-152 -16 16 -36 276 -33 425 4 195 6 201 116 244 40 16 83 36 96 45 36 23 99
120 65 98 -6 -3 -16 0 -21 7 -7 11 -11 11 -15 2 -5 -15 -33 -18 -33 -4 0 12
40 41 56 41 6 0 23 -11 39 -25 22 -21 26 -33 23 -60 -2 -19 0 -35 4 -35 9 0
11 61 2 84 -3 9 -21 25 -40 37 -19 11 -32 25 -28 30 8 14 14 12 66 -23z m-72
-73 c0 -16 -36 -57 -66 -74 -47 -28 -47 -27 -19 15 14 20 25 43 25 50 0 9 11
14 30 14 17 0 30 -2 30 -5z"/>
<path d="M1840 2765 c0 -25 -38 -92 -55 -99 -34 -13 -65 -5 -115 29 -29 19
-54 35 -56 35 -29 0 75 -75 117 -85 37 -9 83 17 102 57 23 52 30 78 18 78 -6
0 -11 -7 -11 -15z"/>
<path d="M986 2753 c27 -62 75 -219 85 -280 6 -40 15 -73 20 -73 4 0 18 14 31
31 13 17 45 55 72 85 27 30 44 54 39 54 -13 0 -96 -88 -112 -118 -15 -29 -31
-28 -31 1 0 63 -82 317 -102 317 -6 0 -7 -7 -2 -17z"/>
<path d="M2160 2762 c0 -11 46 -32 68 -32 9 1 -1 10 -22 20 -45 23 -46 23 -46
12z"/>
<path d="M3160 2703 c0 -4 4 -13 8 -19 9 -15 52 -37 51 -27 0 11 -59 57 -59
46z"/>
<path d="M2217 2659 c-10 -51 -29 -63 -105 -69 -60 -5 -67 -8 -83 -35 -10 -16
-20 -43 -24 -60 -4 -21 2 -14 22 25 l28 55 47 -3 c77 -6 135 40 126 99 -3 20
-5 18 -11 -12z"/>
<path d="M1570 2625 c-58 -59 -48 -66 12 -9 26 24 43 46 39 48 -4 3 -27 -15
-51 -39z"/>
<path d="M1646 2648 c17 -54 34 -124 34 -143 0 -15 -6 -10 -26 18 -27 40 -47
44 -51 11 -2 -10 0 -13 3 -6 9 19 18 15 37 -18 17 -28 57 -42 57 -20 0 29 -44
180 -52 180 -5 0 -6 -10 -2 -22z"/>
<path d="M5337 2644 c-3 -4 -30 -15 -59 -25 -32 -11 -44 -18 -30 -18 12 -1 38
6 57 13 31 13 35 13 35 0 0 -9 -14 -29 -31 -45 -33 -31 -28 -40 7 -11 25 19
44 53 44 76 0 16 -12 21 -23 10z"/>
<path d="M3520 2609 c0 -11 13 -34 29 -50 36 -36 79 -38 116 -6 30 26 43 83
16 71 -32 -13 -100 -16 -130 -6 -28 10 -31 9 -31 -9z m149 -31 c-13 -24 -27
-31 -61 -30 -27 1 -68 26 -68 41 0 4 31 7 69 7 63 0 69 -2 60 -18z"/>
<path d="M5786 2584 c-40 -64 -135 -184 -146 -184 -4 0 -24 22 -44 50 -45 63
-74 71 -124 36 -52 -36 -92 -34 -114 4 -15 27 -22 30 -65 29 -26 -1 -59 -5
-73 -10 -17 -6 -7 -7 32 -3 75 7 98 -6 98 -53 l0 -35 -41 37 c-33 30 -46 35
-67 30 -42 -10 -50 -25 -11 -19 65 11 132 -73 107 -133 l-12 -28 -4 32 c-3 35
-59 103 -83 103 -18 0 -83 -39 -76 -46 2 -2 18 3 35 13 38 22 74 8 97 -38 14
-26 15 -36 5 -58 l-13 -26 -9 33 c-12 45 -42 57 -92 37 -47 -20 -41 -32 7 -14
43 15 63 8 71 -26 8 -31 -16 -65 -46 -65 -20 0 -23 12 -8 41 8 13 7 19 0 19
-16 0 -35 -49 -23 -61 6 -6 7 -31 2 -67 -4 -31 -6 -58 -4 -61 8 -8 26 53 23
78 -3 22 5 29 52 54 72 37 102 71 100 111 -5 80 -3 85 33 80 25 -4 43 2 79 26
38 25 51 29 66 21 27 -14 86 -98 124 -176 18 -36 36 -65 40 -65 5 0 -6 28 -23
62 -20 39 -28 67 -23 74 5 6 34 45 65 85 81 108 101 138 97 149 -2 5 -16 -11
-32 -36z"/>
<path d="M1830 2612 c0 -5 12 -15 26 -23 67 -36 108 -137 195 -482 57 -231
131 -447 151 -447 6 0 8 6 5 13 -51 113 -91 236 -143 442 -34 138 -64 255 -65
260 -2 6 9 22 24 37 19 19 25 32 20 45 -7 17 -8 17 -11 -2 -5 -25 -21 -45 -36
-45 -6 0 -22 28 -35 62 -15 39 -40 77 -67 105 -41 41 -64 53 -64 35z"/>
<path d="M1556 2538 c-7 -43 -26 -631 -25 -763 2 -137 16 -22 18 140 3 230 19
644 26 655 3 6 2 10 -3 10 -5 0 -13 -19 -16 -42z"/>
<path d="M6325 2558 c-118 -48 -198 -92 -231 -126 -42 -43 -124 -178 -124
-204 0 -10 -4 -18 -8 -18 -12 0 -32 69 -33 111 0 33 -1 33 -12 10 -9 -19 -6
-37 16 -100 15 -42 27 -89 27 -103 0 -15 5 -30 10 -33 6 -4 10 18 10 58 0 54
6 76 35 135 66 132 128 182 303 247 39 15 72 31 72 36 0 12 -6 11 -65 -13z"/>
<path d="M5910 2542 c0 -7 9 -31 21 -54 11 -22 27 -70 34 -107 12 -62 13 -63
14 -23 1 23 -8 67 -18 97 -20 56 -51 109 -51 87z"/>
<path d="M6530 2505 c7 -8 18 -15 26 -15 7 0 42 -27 78 -60 101 -95 178 -259
236 -505 90 -380 136 -713 148 -1075 4 -137 8 -183 14 -155 9 48 2 228 -18
455 -20 232 -30 301 -70 505 -101 515 -194 729 -362 836 -50 32 -72 38 -52 14z"/>
<path d="M5859 2458 c-12 -23 -42 -74 -68 -113 -25 -38 -50 -76 -54 -82 -4 -7
-4 -13 0 -13 19 0 161 235 149 247 -2 3 -15 -15 -27 -39z"/>
<path d="M5142 2443 c-43 -68 -53 -97 -63 -190 -10 -91 -32 -158 -50 -148 -7
5 -10 -1 -7 -16 4 -32 61 -67 120 -75 27 -4 52 -12 54 -18 2 -6 1 -54 -4 -106
-5 -52 -6 -106 -2 -120 4 -14 9 29 13 100 5 97 3 134 -8 165 -11 30 -14 34
-15 16 0 -22 -3 -23 -45 -19 -25 3 -56 13 -70 22 l-25 17 21 40 c12 25 24 76
30 130 10 99 23 137 69 204 17 25 27 45 22 45 -6 0 -24 -21 -40 -47z"/>
<path d="M2090 2409 c19 -17 65 -48 103 -70 37 -22 75 -51 83 -65 9 -13 19
-22 22 -20 12 13 -34 59 -97 95 -38 23 -83 52 -99 66 -17 14 -34 25 -38 25 -5
-1 7 -14 26 -31z"/>
<path d="M6480 2432 c0 -5 23 -19 51 -32 141 -67 193 -223 194 -585 0 -182 -3
-223 -22 -310 -13 -55 -27 -154 -32 -221 -14 -175 -58 -284 -132 -328 -53 -31
-143 -31 -434 3 -148 18 -290 37 -315 43 -61 15 -115 43 -134 70 -9 12 -19 19
-22 15 -18 -17 64 -79 130 -99 35 -10 466 -63 598 -74 146 -11 221 25 273 131
36 73 44 110 55 250 4 66 18 161 31 210 19 78 22 117 23 300 0 230 -14 336
-60 448 -33 84 -63 118 -132 155 -64 34 -72 37 -72 24z"/>
<path d="M1380 2413 c0 -13 69 -33 114 -33 20 0 36 5 36 10 0 6 -10 8 -24 4
-22 -5 -65 3 -108 21 -10 4 -18 3 -18 -2z"/>
<path d="M5887 2372 c-22 -24 -69 -161 -64 -187 2 -13 7 -5 16 25 23 85 46
135 70 158 17 15 19 22 9 22 -8 0 -22 -8 -31 -18z"/>
<path d="M1827 2345 c-4 -22 -6 -110 -5 -195 1 -128 -3 -190 -27 -352 l-30
-198 -44 0 c-25 0 -122 11 -215 25 -94 13 -186 26 -205 27 l-34 3 -33 145
c-36 155 -113 391 -163 504 -48 106 -46 73 3 -50 83 -207 191 -594 165 -594
-5 0 -9 -4 -9 -9 0 -4 33 -12 73 -15 39 -4 128 -16 197 -26 153 -23 328 -41
435 -44 44 -2 91 -6 105 -11 17 -5 22 -4 15 2 -17 18 -76 33 -125 33 l-48 0
-28 67 c-16 37 -30 61 -32 52 -1 -8 9 -41 23 -72 l25 -58 -37 7 c-50 9 -51 10
-47 36 50 340 55 397 52 578 -2 123 -6 172 -11 145z"/>
<path d="M5547 2340 c-20 -24 -52 -85 -77 -148 -48 -121 -54 -133 -162 -295
-43 -65 -78 -123 -78 -130 0 -14 138 190 186 274 17 31 48 100 69 152 24 63
51 112 77 142 22 25 35 45 30 45 -6 0 -26 -18 -45 -40z"/>
<path d="M5601 2312 c-15 -60 -34 -91 -28 -44 2 17 0 32 -5 32 -4 0 -8 -22 -8
-50 0 -82 15 -66 54 54 19 58 18 56 7 56 -5 0 -14 -21 -20 -48z"/>
<path d="M2540 2245 c-8 -2 -68 -7 -133 -10 -97 -6 -120 -10 -124 -24 -4 -9
-11 -19 -17 -23 -6 -4 -8 -9 -6 -11 3 -2 85 0 183 5 98 5 185 7 193 4 22 -8
18 -46 -5 -46 -49 0 -65 -25 -35 -54 12 -13 13 -17 2 -20 -34 -12 -165 -26
-237 -26 -80 0 -81 0 -81 25 0 14 -5 25 -11 25 -6 0 -9 -8 -7 -18 3 -10 -1
-27 -8 -37 -19 -26 -18 -41 5 -64 12 -12 23 -44 29 -83 9 -56 8 -65 -9 -84
-10 -11 -30 -53 -44 -94 -33 -96 -84 -150 -145 -150 -11 0 -20 -4 -20 -10 0
-12 6 -12 50 0 55 15 104 74 130 155 12 39 30 77 39 87 15 15 195 58 245 58
29 0 101 -37 101 -53 0 -8 -16 -12 -45 -13 -68 0 -165 -14 -181 -26 -10 -7 0
-8 31 -3 25 3 64 9 87 12 59 8 90 -3 108 -37 9 -17 14 -30 13 -30 -2 -1 -45
-2 -95 -3 -60 -2 -97 -7 -105 -16 -11 -10 -5 -12 32 -6 102 14 109 14 135 -7
14 -10 25 -28 25 -39 0 -17 -5 -19 -54 -13 -57 7 -106 0 -106 -15 0 -5 20 -4
44 1 55 12 89 -3 84 -35 -2 -17 -11 -23 -38 -25 -69 -5 -78 -12 -148 -105
-101 -134 -97 -131 -208 -135 -98 -4 -121 -18 -35 -21 64 -2 140 15 165 37 10
9 49 59 87 109 68 92 98 113 135 99 23 -9 66 21 62 42 -2 9 5 24 16 33 18 15
19 20 7 45 -12 27 -11 31 22 59 18 17 40 41 47 54 16 31 15 170 -3 212 -12 30
-11 39 5 77 18 40 18 45 4 68 -9 13 -25 24 -35 24 -12 0 -23 11 -30 30 -5 17
-16 30 -23 30 -7 0 -18 10 -23 23 -10 21 -39 30 -75 22z m67 -31 c2 -7 -47
-13 -154 -17 -86 -3 -159 -4 -162 -2 -11 12 17 20 87 26 115 9 225 6 229 -7z
m94 -94 c22 -12 24 -37 7 -75 -14 -30 -19 -31 -43 -5 -18 20 -17 20 8 20 15 0
27 5 27 10 0 6 -15 10 -33 10 -38 0 -73 22 -63 38 9 15 71 16 97 2z m-61 -70
c0 -5 -17 -9 -37 -9 -38 1 -38 1 -8 9 43 11 45 11 45 0z m-368 -45 c3 -14 1
-25 -3 -25 -5 0 -9 11 -9 25 0 14 2 25 4 25 2 0 6 -11 8 -25z m222 17 c-7 -4
-11 -29 -10 -57 1 -46 4 -51 33 -65 18 -8 33 -18 33 -21 0 -8 -229 -54 -235
-47 -6 5 -25 134 -25 168 l0 26 108 2 c59 1 102 -2 96 -6z m197 -38 c9 -16 20
-40 24 -54 l6 -25 -18 23 c-21 26 -75 41 -144 42 -51 0 -79 19 -56 38 15 12
122 20 152 11 11 -3 27 -19 36 -35z m-78 -34 c33 0 46 -6 73 -36 19 -19 34
-45 34 -57 0 -13 -3 -17 -8 -11 -14 21 -75 46 -135 54 -67 10 -103 33 -77 51
8 5 28 7 44 4 16 -3 47 -5 69 -5z m40 -85 c52 -22 73 -56 57 -95 -19 -45 -44
-55 -64 -25 -15 22 -14 24 4 30 35 11 22 34 -37 64 -24 12 -43 29 -43 37 0 18
20 15 83 -11z"/>
<path d="M5249 2186 c-20 -45 -54 -80 -90 -91 -10 -4 -19 -10 -19 -15 0 -13
29 -1 66 26 31 23 91 124 73 124 -6 0 -19 -20 -30 -44z"/>
<path d="M2241 2143 c-1 -27 3 -34 26 -39 29 -8 292 2 301 11 11 10 -5 11 -98
4 -52 -3 -123 -4 -157 -1 -57 4 -62 7 -66 31 -3 23 -4 22 -6 -6z"/>
<path d="M3090 2168 c0 -3 8 -20 17 -39 13 -25 19 -75 24 -197 4 -90 10 -166
14 -170 12 -11 -4 308 -17 351 -9 30 -38 72 -38 55z"/>
<path d="M5789 2065 c-10 -47 -10 -71 5 -153 29 -169 45 -274 55 -372 l10 -95
-4 125 c-3 82 -13 170 -30 255 -26 127 -30 233 -10 278 4 10 3 17 -3 17 -6 0
-16 -25 -23 -55z"/>
<path d="M6132 2093 c-11 -28 -8 -635 3 -655 7 -11 10 95 10 328 0 189 -1 344
-3 344 -1 0 -6 -8 -10 -17z"/>
<path d="M4996 2059 c-3 -8 -19 -52 -36 -98 -33 -95 -37 -110 -13 -67 21 39
64 168 58 174 -2 3 -7 -1 -9 -9z"/>
<path d="M585 2030 c7 -45 103 -285 172 -430 30 -63 63 -138 74 -166 23 -60
67 -106 132 -134 57 -25 147 -38 147 -21 0 6 -15 11 -33 11 -56 0 -137 30
-173 63 -36 35 -131 235 -256 542 -38 94 -67 154 -63 135z"/>
<path d="M5510 1944 c0 -4 11 -62 25 -129 26 -130 73 -290 82 -282 3 3 -6 43
-20 89 -27 86 -67 271 -67 307 0 12 -4 21 -10 21 -5 0 -10 -3 -10 -6z"/>
<path d="M5005 1850 c8 -14 103 -40 139 -39 21 1 12 5 -32 15 -34 7 -71 18
-81 24 -25 13 -34 13 -26 0z"/>
<path d="M4695 1830 c-27 -30 -12 -34 15 -5 13 14 19 25 13 25 -5 0 -18 -9
-28 -20z"/>
<path d="M4760 1840 c0 -5 18 -10 40 -10 22 0 40 5 40 10 0 6 -18 10 -40 10
-22 0 -40 -4 -40 -10z"/>
<path d="M4736 1832 c-7 -12 139 -170 149 -160 4 3 -13 26 -37 50 -24 24 -58
60 -75 81 -17 22 -34 34 -37 29z"/>
<path d="M4933 1732 c97 -97 97 -96 -10 -78 -34 6 -44 5 -49 -7 -8 -23 12 -54
46 -69 37 -16 38 -24 3 -31 -34 -6 -33 -7 -154 125 -54 59 -101 103 -103 99
-3 -4 44 -60 105 -123 l109 -116 -45 -17 c-25 -10 -50 -24 -56 -31 -16 -19 -1
-53 27 -60 18 -5 23 -11 19 -25 -3 -10 -1 -28 5 -40 9 -17 19 -20 46 -17 19 2
34 3 34 1 0 -1 -5 -13 -11 -27 -18 -38 2 -56 62 -56 38 0 53 -5 73 -25 31 -31
76 -33 148 -5 83 31 84 31 80 -51 -2 -43 1 -76 7 -82 8 -8 11 13 11 75 l0 86
29 7 c44 9 100 -19 151 -77 40 -46 121 -108 142 -108 19 0 6 16 -24 29 -40 18
-115 86 -133 121 -15 30 -8 87 19 138 9 17 12 32 7 32 -15 0 -39 -52 -47 -100
-6 -39 -8 -41 -33 -33 -48 14 -125 7 -204 -20 -90 -31 -105 -33 -135 -11 -27
18 -28 31 -4 38 9 3 -15 3 -54 0 -53 -4 -74 -1 -82 9 -17 20 21 67 53 67 13 0
26 4 29 9 4 5 -27 7 -74 4 -74 -5 -80 -4 -80 13 0 31 12 40 68 54 28 6 55 17
59 23 4 7 -2 8 -18 3 -93 -26 -120 -28 -145 -11 -20 13 -23 19 -14 31 16 18
180 71 270 85 38 7 70 16 70 21 0 4 -19 5 -42 1 -46 -7 -53 -8 -110 -5 -34 2
-101 43 -88 55 3 2 64 1 135 -2 137 -8 150 -12 285 -85 25 -14 75 -39 113 -57
55 -26 66 -36 61 -51 -7 -22 -5 -22 32 -4 23 12 48 13 114 7 47 -4 95 -13 108
-20 13 -7 22 -8 22 -2 0 15 -35 31 -67 31 -16 0 -89 29 -163 65 -74 36 -140
65 -147 65 -7 0 -13 -11 -13 -25 0 -14 -2 -25 -5 -25 -3 0 -44 23 -92 50 -49
28 -105 53 -126 57 -25 4 -34 9 -26 14 8 4 10 11 6 16 -4 4 -16 2 -25 -5 -9
-7 -23 -15 -29 -18 -7 -3 -55 33 -111 85 -55 50 -103 91 -108 91 -5 0 31 -40
79 -88z m577 -222 l95 -49 -45 -1 c-56 -1 -179 55 -179 83 -1 27 26 20 129
-33z"/>
<path d="M4110 1703 c0 -91 -12 -265 -25 -373 -4 -29 -2 -40 4 -30 9 15 25
190 36 393 4 73 3 107 -4 107 -7 0 -11 -35 -11 -97z"/>
<path d="M4950 1760 c0 -5 7 -10 15 -10 9 0 61 -16 116 -35 109 -38 118 -40
103 -25 -9 9 -209 80 -226 80 -4 0 -8 -4 -8 -10z"/>
<path d="M2929 1723 c-12 -15 -12 -16 6 -9 32 14 228 18 245 7 31 -22 -13 -32
-133 -29 -64 2 -117 0 -117 -3 0 -12 128 -20 199 -13 65 6 71 8 71 29 0 31
-15 35 -145 35 -93 0 -115 -3 -126 -17z"/>
<path d="M2901 1675 c0 -17 3 -35 7 -40 5 -6 15 -80 22 -165 7 -85 16 -165 21
-177 l9 -23 -430 0 -429 0 1 33 c1 18 -4 43 -11 56 -7 12 -15 56 -18 97 -3 41
-10 74 -16 74 -13 0 -1 -119 19 -177 26 -77 27 -77 -159 -68 -89 5 -187 8
-217 7 -30 -1 -166 -2 -302 -4 -141 -1 -248 -6 -248 -12 0 -5 140 -8 338 -7
185 1 1023 0 1862 -1 839 -2 1175 -2 746 -1 -736 3 -778 4 -770 21 4 9 10 49
12 88 l4 72 -54 20 c-29 10 -59 21 -67 24 -11 3 -14 21 -12 74 1 38 7 71 12
72 12 5 12 49 -1 57 -6 3 -10 -5 -10 -19 0 -21 -7 -27 -42 -37 -27 -7 -72 -9
-118 -5 -127 11 -138 15 -143 45 -4 25 -4 24 -6 -4z m295 -105 c-3 -30 -9
-101 -12 -158 -4 -56 -13 -110 -20 -120 -10 -14 -28 -17 -98 -17 -47 0 -90 5
-95 10 -8 8 -41 274 -41 329 0 7 43 11 136 11 l136 0 -6 -55z m79 -109 c49
-17 50 -19 53 -62 2 -24 -2 -63 -9 -86 l-12 -43 -64 0 c-51 0 -64 3 -60 14 3
7 8 54 12 105 5 57 12 91 19 90 6 0 34 -8 61 -18z"/>
<path d="M5261 1652 c24 -16 53 -39 63 -50 11 -12 24 -22 29 -22 6 0 2 10 -9
21 -29 33 -95 79 -112 79 -9 0 4 -13 29 -28z"/>
<path d="M5502 1629 c-24 -17 -41 -34 -38 -36 4 -5 96 56 96 64 0 9 -21 0 -58
-28z"/>
<path d="M1860 1501 c0 -45 30 -161 42 -161 6 0 7 8 3 17 -6 18 -21 83 -29
137 -7 41 -16 45 -16 7z"/>
<path d="M3365 1432 c9 -9 199 -52 233 -52 34 0 1 11 -90 29 -53 11 -109 23
-125 27 -19 4 -25 3 -18 -4z"/>
<path d="M5775 1405 c6 -2 64 -9 130 -15 103 -9 271 -38 328 -56 9 -3 17 -1
17 4 0 24 -274 72 -400 71 -47 0 -80 -2 -75 -4z"/>
<path d="M6180 1403 c0 -5 20 -8 44 -9 25 0 59 -10 80 -22 19 -12 38 -17 41
-12 10 16 -72 50 -120 50 -25 0 -45 -3 -45 -7z"/>
<path d="M5695 1353 c-36 -53 -67 -154 -63 -205 3 -42 3 -42 16 24 16 84 45
155 80 191 20 21 22 27 9 27 -9 0 -28 -17 -42 -37z"/>
<path d="M1424 1150 l1 -95 33 -5 33 -5 2 -90 c2 -62 8 -100 20 -122 9 -18 17
-50 17 -73 0 -28 5 -43 16 -47 22 -8 223 51 211 63 -3 3 -49 -8 -102 -25 -53
-17 -101 -29 -106 -25 -6 3 -8 17 -5 30 4 13 -3 45 -15 76 -22 54 -31 165 -17
201 7 15 18 17 85 15 l76 -3 -2 -73 c-2 -72 -2 -73 33 -104 22 -19 36 -41 36
-55 0 -13 5 -23 10 -23 23 0 7 45 -30 82 -41 43 -44 54 -34 132 l7 46 161 0
c174 0 186 -3 186 -51 0 -49 19 -81 90 -146 39 -36 89 -94 112 -129 23 -35 44
-62 46 -60 13 14 -86 143 -167 218 -43 39 -61 63 -61 81 0 13 -3 39 -6 56 l-7
31 1608 0 c884 -1 1610 2 1613 5 3 3 -857 5 -1911 5 l-1917 0 -5 23 c-3 12 -6
54 -8 92 -2 44 -3 35 -3 -25z"/>
<path d="M4115 985 c3 -27 2 -55 -2 -60 -5 -7 -96 -9 -270 -7 l-263 4 0 34 c0
19 -4 34 -10 34 -6 0 -10 -72 -10 -195 0 -123 4 -195 10 -195 6 0 10 56 10
149 l0 149 88 8 c70 5 312 1 432 -9 23 -2 25 1 28 50 2 29 -2 61 -8 70 -8 14
-9 6 -5 -32z"/>
<path d="M3364 810 c0 -113 2 -159 3 -102 2 56 2 148 0 205 -1 56 -3 10 -3
-103z"/>
<path d="M5520 986 c-56 -29 -184 -76 -315 -115 -100 -30 -175 -76 -175 -107
0 -21 9 -17 37 16 32 38 81 64 164 85 131 34 359 123 359 139 0 11 -26 5 -70
-18z"/>
<path d="M2950 974 c-6 -15 -10 -39 -8 -53 l3 -26 105 5 c58 3 146 5 197 5 54
-1 89 3 86 9 -4 5 -78 6 -188 2 -99 -4 -184 -4 -187 -1 -3 3 -2 23 3 43 10 45
3 55 -11 16z"/>
<path d="M5864 893 c2 -10 8 -43 11 -73 9 -67 22 -82 99 -120 34 -16 86 -50
116 -75 64 -53 104 -68 257 -95 116 -21 222 -54 306 -97 27 -13 52 -22 55 -19
7 8 8 7 -78 45 -116 52 -177 70 -280 87 -133 21 -179 38 -257 96 -37 27 -94
63 -125 79 -58 29 -63 36 -73 104 -11 71 -15 85 -26 85 -6 0 -8 -8 -5 -17z"/>
<path d="M2936 816 c-17 -59 50 -217 104 -246 31 -16 29 -12 -12 30 -49 52
-69 98 -77 180 -6 56 -8 61 -15 36z"/>
<path d="M4110 751 c0 -37 -2 -90 -5 -117 -4 -42 -4 -45 5 -19 16 49 25 205
11 205 -7 0 -11 -24 -11 -69z"/>
<path d="M1760 745 c0 -5 153 -96 220 -130 28 -14 50 -22 50 -18 0 5 -29 23
-65 41 -35 19 -93 51 -129 73 -63 38 -76 44 -76 34z"/>
<path d="M5828 729 c-34 -19 -153 -40 -413 -74 -295 -38 -387 -55 -513 -91
-86 -25 -195 -75 -208 -95 -4 -6 -3 -10 2 -7 204 99 303 123 729 178 289 37
459 74 429 93 -5 3 -17 1 -26 -4z"/>
<path d="M1475 700 c-22 -11 -59 -22 -83 -26 -23 -3 -45 -11 -48 -16 -8 -13
58 0 124 24 28 11 52 24 52 29 0 5 -1 9 -2 8 -2 0 -21 -9 -43 -19z"/>
<path d="M296 673 c-11 -72 -7 -183 10 -214 8 -17 18 -29 20 -26 3 3 -2 19
-10 36 -17 32 -20 114 -7 194 4 26 5 47 1 47 -4 0 -10 -17 -14 -37z"/>
<path d="M7010 602 c0 -16 -9 -55 -20 -87 -24 -71 -21 -97 4 -34 22 54 36 138
25 145 -5 3 -9 -8 -9 -24z"/>
<path d="M1400 590 c0 -8 144 -89 185 -104 38 -14 1 11 -92 62 -51 28 -93 47
-93 42z"/>
</g>
</svg>
